<svg width="264" height="161" viewBox="0 0 264 161" fill="none" xmlns="http://www.w3.org/2000/svg">
<path d="M24.906 138.77C24.906 146.724 19.0781 152.911 11.2556 152.911H0V124.608H11.2556C19.0781 124.608 24.906 130.795 24.906 138.77ZM19.5598 138.77C19.5598 133.551 16.1676 129.97 11.2556 129.97H5.59046V147.57H11.2556C16.1608 147.57 19.5598 143.968 19.5598 138.77Z" fill="#10092D"/>
<path d="M46.9762 132.677L39.6081 152.897C37.4982 158.712 34.0584 161.257 28.9157 160.98V156.126C31.7924 156.167 33.251 154.955 34.2212 152.247L25.9169 132.677H31.6295L36.8943 146.256L41.3857 132.677H46.9762Z" fill="#10092D"/>
<path d="M68.361 140.489V152.897H63.1369V141.139C63.1369 138.391 61.4747 136.976 59.1273 136.976C56.5763 136.976 54.6698 138.472 54.6698 141.985V152.897H49.4457V132.677H54.6698V134.938C55.8843 133.124 57.9942 132.116 60.7081 132.116C64.9959 132.129 68.361 135.114 68.361 140.489Z" fill="#10092D"/>
<path d="M93.4299 132.677V152.884H88.199V150.501C87.4035 151.469 86.3927 152.24 85.2469 152.751C84.101 153.262 82.8516 153.5 81.5977 153.445C76.2107 153.445 71.7533 148.802 71.7533 142.777C71.7533 136.752 76.2107 132.115 81.5977 132.115C82.8516 132.061 84.101 132.299 85.2469 132.81C86.3927 133.321 87.4035 134.091 88.199 135.06V132.677H93.4299ZM88.199 142.791C88.179 141.689 87.8335 140.617 87.2058 139.711C86.5781 138.804 85.6962 138.102 84.6705 137.693C83.6448 137.285 82.521 137.187 81.44 137.413C80.3589 137.638 79.3687 138.177 78.5933 138.962C77.818 139.747 77.292 140.743 77.0813 141.824C76.8707 142.906 76.9847 144.026 77.409 145.043C77.8334 146.061 78.5493 146.93 79.467 147.544C80.3847 148.157 81.4634 148.486 82.5678 148.49C83.3222 148.52 84.0743 148.392 84.7763 148.114C85.4782 147.837 86.1145 147.417 86.6444 146.881C87.1744 146.344 87.5864 145.703 87.854 144.999C88.1217 144.295 88.2392 143.543 88.199 142.791Z" fill="#10092D"/>
<path d="M128.228 140.448V152.897H123.004V140.8C123.004 138.418 121.789 136.962 119.611 136.962C117.298 136.962 115.846 138.499 115.846 141.525V152.884H110.588V140.8C110.588 138.418 109.367 136.962 107.196 136.962C105.025 136.962 103.39 138.499 103.39 141.525V152.884H98.1655V132.677H103.39V134.816C104.523 133.124 106.429 132.109 109.021 132.109C110.116 132.055 111.205 132.296 112.174 132.807C113.144 133.318 113.957 134.08 114.53 135.013C115.785 133.199 117.807 132.109 120.561 132.109C125.175 132.129 128.228 135.385 128.228 140.448Z" fill="#10092D"/>
<path d="M132.061 127.072C132.057 126.435 132.243 125.81 132.596 125.278C132.948 124.747 133.451 124.331 134.041 124.085C134.631 123.84 135.28 123.774 135.907 123.898C136.534 124.021 137.111 124.328 137.562 124.779C138.014 125.229 138.322 125.804 138.445 126.43C138.569 127.055 138.504 127.704 138.257 128.292C138.011 128.88 137.594 129.382 137.061 129.734C136.528 130.086 135.902 130.272 135.263 130.268C134.417 130.259 133.607 129.919 133.009 129.322C132.41 128.725 132.07 127.917 132.061 127.072ZM132.665 132.691H137.896V152.897H132.665V132.691Z" fill="#10092D"/>
<path d="M141.62 142.791C141.589 141.381 141.844 139.98 142.37 138.672C142.897 137.364 143.683 136.176 144.682 135.179C145.682 134.183 146.873 133.399 148.185 132.875C149.496 132.35 150.9 132.097 152.313 132.129C154.156 132.097 155.974 132.564 157.572 133.482C159.169 134.4 160.487 135.734 161.384 137.341L156.886 139.968C156.453 139.127 155.789 138.426 154.973 137.946C154.156 137.467 153.219 137.229 152.272 137.26C150.84 137.31 149.483 137.913 148.488 138.942C147.493 139.97 146.936 141.344 146.936 142.774C146.936 144.203 147.493 145.577 148.488 146.606C149.483 147.634 150.84 148.237 152.272 148.287C153.222 148.332 154.165 148.104 154.99 147.632C155.814 147.159 156.486 146.461 156.926 145.62L161.465 148.206C160.282 150.224 158.464 151.796 156.294 152.679C154.124 153.562 151.723 153.706 149.462 153.089C147.202 152.472 145.208 151.129 143.79 149.267C142.373 147.405 141.61 145.129 141.62 142.791Z" fill="#10092D"/>
<path d="M199.649 138.77C199.649 146.724 193.821 152.911 186.005 152.911H174.743V124.608H186.005C193.821 124.608 199.649 130.795 199.649 138.77ZM194.302 138.77C194.302 133.551 190.91 129.97 186.005 129.97H180.333V147.57H186.005C190.903 147.57 194.302 143.968 194.302 138.77Z" fill="#10092D"/>
<path d="M223.992 132.677V152.884H218.767V150.501C217.973 151.47 216.962 152.241 215.816 152.752C214.67 153.264 213.42 153.501 212.166 153.445C206.779 153.445 202.322 148.802 202.322 142.777C202.322 136.752 206.779 132.115 212.166 132.115C213.42 132.06 214.67 132.297 215.816 132.808C216.962 133.32 217.973 134.091 218.767 135.06V132.677H223.992ZM218.767 142.777C218.747 141.675 218.402 140.604 217.774 139.697C217.147 138.79 216.265 138.089 215.239 137.68C214.213 137.271 213.089 137.173 212.008 137.399C210.927 137.625 209.937 138.164 209.162 138.949C208.386 139.733 207.86 140.729 207.65 141.811C207.439 142.893 207.553 144.012 207.978 145.03C208.402 146.047 209.118 146.917 210.035 147.53C210.953 148.143 212.032 148.473 213.136 148.477C213.889 148.506 214.64 148.378 215.341 148.102C216.042 147.826 216.678 147.407 217.208 146.872C217.737 146.337 218.15 145.698 218.418 144.995C218.687 144.292 218.806 143.542 218.767 142.791V142.777Z" fill="#10092D"/>
<path d="M235.736 137.7V146.108C235.736 148.287 237.316 148.328 240.308 148.138V152.877C232.981 153.682 230.512 151.523 230.512 146.108V137.7H226.984V132.677H230.512V128.616L235.736 127.039V132.677H240.308V137.687L235.736 137.7Z" fill="#10092D"/>
<path d="M264 132.677V152.884H258.776V150.501C257.981 151.47 256.97 152.241 255.824 152.752C254.678 153.264 253.429 153.501 252.175 153.445C246.788 153.445 242.337 148.802 242.337 142.777C242.337 136.752 246.788 132.115 252.175 132.115C253.429 132.06 254.678 132.297 255.824 132.808C256.97 133.32 257.981 134.091 258.776 135.06V132.677H264ZM258.776 142.777C258.756 141.675 258.41 140.604 257.783 139.697C257.155 138.79 256.273 138.089 255.247 137.68C254.222 137.271 253.098 137.173 252.017 137.399C250.936 137.625 249.946 138.164 249.17 138.949C248.395 139.733 247.869 140.729 247.658 141.811C247.448 142.893 247.562 144.012 247.986 145.03C248.41 146.047 249.126 146.917 250.044 147.53C250.962 148.143 252.04 148.473 253.145 148.477C253.898 148.506 254.649 148.378 255.35 148.102C256.051 147.826 256.686 147.407 257.216 146.872C257.746 146.337 258.158 145.698 258.427 144.995C258.695 144.292 258.814 143.542 258.776 142.791V142.777Z" fill="#10092D"/>
<path d="M156.248 38.2937C156.248 59.9553 140.135 76.5873 118.933 76.5873H107.752V25.3712H139.551C144.93 25.3425 150.252 26.4691 155.156 28.6746C155.897 31.8271 156.263 35.0556 156.248 38.2937Z" fill="#14068A"/>
<path d="M176.839 63.6648C176.839 85.3264 160.712 101.958 139.524 101.958H107.752V76.5873H118.967C140.135 76.5873 156.282 59.962 156.282 38.2937C156.29 35.0548 155.917 31.8263 155.169 28.6746C168.134 34.557 176.839 47.7503 176.839 63.6648Z" fill="#00B2F4"/>
<path d="M155.135 28.6746C150.232 26.4691 144.91 25.3425 139.531 25.3712H107.752V76.5873H107.657H102.297H87.1678V0H118.967C136.871 0 151.16 11.9003 155.135 28.6746Z" fill="#F5007F"/>
</svg>
