<svg width="295" height="83" fill="none" xmlns="http://www.w3.org/2000/svg"><path d="M48.19 76.705a9.457 9.457 0 000-13.41c-3.717-3.703-9.743-3.703-13.46 0a9.457 9.457 0 000 13.41c3.717 3.703 9.743 3.703 13.46 0zM20.17 47.712a9.48 9.48 0 000-13.424c-3.713-3.706-9.734-3.706-13.447 0a9.48 9.48 0 000 13.424c3.714 3.706 9.734 3.706 13.447 0z" fill="#333"/><path d="M46.87 46.424a7.196 7.196 0 01-3.622 1.966 28.695 28.695 0 00-3.25.837 25.255 25.255 0 00-16.71 18.434 24.58 24.58 0 00-.316 1.672c-.086.557-.126 1.121-.212 1.673a9.433 9.433 0 01-11.448 7.752A9.435 9.435 0 017.2 62.486a9.436 9.436 0 014.605-2.21c.583-.104 1.175-.144 1.758-.24.584-.095 1.1-.181 1.645-.3a25.074 25.074 0 006.17-2.225 25.364 25.364 0 009.502-8.543 25.188 25.188 0 002.854-5.837c.355-1.04.637-2.105.843-3.185a7.27 7.27 0 0110.536-5.11 7.271 7.271 0 011.758 11.576v.012z" fill="#FF184A"/><path d="M20.17 19.712a9.481 9.481 0 000-13.424c-3.714-3.707-9.734-3.707-13.447 0a9.481 9.481 0 000 13.424c3.713 3.707 9.733 3.707 13.446 0zM95.458 43.174C94.84 41.1 93.8 39.525 92.34 38.45c-1.442-1.093-3.267-1.64-5.476-1.64-1.91 0-3.622.585-5.138 1.754-1.517 1.169-2.537 2.705-3.061 4.61h16.792zm-17.045 5.741c.243 2.244 1.123 4.016 2.64 5.317 1.535 1.282 3.51 1.924 5.925 1.924 1.61 0 3.05-.34 4.324-1.019a7.73 7.73 0 003.06-2.856h7.751c-1.311 3.394-3.276 6.034-5.897 7.919-2.602 1.867-5.616 2.8-9.042 2.8-2.303 0-4.427-.405-6.374-1.216-1.928-.83-3.66-2.046-5.195-3.649a16.495 16.495 0 01-3.398-5.288A16.578 16.578 0 0171 46.652c0-2.169.365-4.205 1.095-6.11a15.867 15.867 0 013.285-5.175c1.573-1.678 3.351-2.97 5.336-3.875 1.984-.905 4.034-1.358 6.15-1.358 2.676 0 5.175.613 7.496 1.839 2.322 1.225 4.297 2.95 5.925 5.176a13.735 13.735 0 012.191 4.497c.486 1.659.73 3.563.73 5.713 0 .17-.01.433-.028.791-.019.34-.028.594-.028.764H78.413zM116.795 46.766c0 2.526.833 4.666 2.499 6.42 1.666 1.753 3.678 2.63 6.037 2.63 2.677 0 4.895-.867 6.655-2.602 1.76-1.753 2.639-3.94 2.639-6.561 0-2.508-.879-4.667-2.639-6.477-1.741-1.81-3.847-2.715-6.318-2.715-2.508 0-4.614.895-6.318 2.687-1.703 1.772-2.555 3.978-2.555 6.618zm-.281-13.208c1.329-1.113 2.771-1.924 4.324-2.433 1.554-.528 3.332-.792 5.335-.792 2.06 0 3.997.35 5.813 1.047a14.428 14.428 0 014.83 3.054 15.89 15.89 0 013.847 5.487 16.314 16.314 0 011.376 6.618c0 2.49-.506 4.846-1.517 7.071a16.602 16.602 0 01-4.268 5.742 14.515 14.515 0 01-4.633 2.715c-1.722.622-3.557.933-5.504.933-1.834 0-3.538-.273-5.11-.82-1.573-.566-3.07-1.414-4.493-2.546v2.546h-7.076V21h7.076v12.558zM171.884 43.174c-.618-2.074-1.657-3.649-3.117-4.724-1.441-1.093-3.267-1.64-5.475-1.64-1.91 0-3.623.585-5.139 1.754s-2.537 2.705-3.061 4.61h16.792zm-17.045 5.741c.244 2.244 1.124 4.016 2.64 5.317 1.535 1.282 3.51 1.924 5.925 1.924 1.61 0 3.051-.34 4.324-1.019a7.73 7.73 0 003.061-2.856h7.75c-1.31 3.394-3.276 6.034-5.897 7.919-2.602 1.867-5.616 2.8-9.042 2.8-2.302 0-4.427-.405-6.374-1.216-1.928-.83-3.66-2.046-5.195-3.649a16.495 16.495 0 01-3.397-5.288 16.577 16.577 0 01-1.208-6.194c0-2.169.365-4.205 1.095-6.11a15.864 15.864 0 013.286-5.175c1.572-1.678 3.351-2.97 5.335-3.875 1.984-.905 4.034-1.358 6.15-1.358 2.676 0 5.176.613 7.497 1.839 2.321 1.225 4.296 2.95 5.925 5.176a13.752 13.752 0 012.19 4.497c.487 1.659.73 3.563.73 5.713 0 .17-.009.433-.028.791-.019.34-.028.594-.028.764h-24.739zM200.775 37.376c-2.79.226-4.737.961-5.841 2.206-1.105 1.244-1.657 3.488-1.657 6.731V62.18h-7.188V31.069h6.739v3.592c1.086-1.396 2.274-2.414 3.566-3.055 1.292-.66 2.752-.99 4.381-.99v6.76zM211.385 46.37c0 2.62.861 4.817 2.584 6.59 1.741 1.753 3.856 2.63 6.346 2.63 2.265 0 4.258-.886 5.981-2.659 1.722-1.772 2.583-3.846 2.583-6.222 0-2.527-.87-4.695-2.611-6.505-1.723-1.829-3.744-2.743-6.066-2.743-2.433 0-4.511.867-6.233 2.602-1.723 1.715-2.584 3.818-2.584 6.307zm18.308 15.81v-3.818c-.861 1.546-2.078 2.686-3.65 3.422-1.554.735-3.548 1.103-5.981 1.103-4.568 0-8.387-1.565-11.457-4.695-3.051-3.149-4.577-7.052-4.577-11.71 0-2.186.384-4.26 1.152-6.221a15.685 15.685 0 013.285-5.176c1.535-1.64 3.238-2.847 5.11-3.62 1.872-.792 3.978-1.188 6.318-1.188 2.247 0 4.175.377 5.785 1.131 1.629.754 2.939 1.895 3.931 3.422V31.07h7.02v31.11h-6.936zM262.206 43.343l-5.251 18.837h-4.689l-10.698-31.111h7.75l4.998 17.96 5.475-17.96h5.279l5.195 17.96 4.998-17.96h7.75l-10.754 31.11h-4.718l-5.335-18.836zM295 27.901h-7.02V21H295v6.901zm-7.02 34.279V31.069H295v31.11h-7.02z" fill="#333"/></svg>