<svg width="90" height="102" viewBox="0 0 90 102" fill="none" xmlns="http://www.w3.org/2000/svg">
<path d="M69.248 38.2937C69.248 59.9553 53.1347 76.5873 31.933 76.5873H20.7521V25.3712H52.5512C57.93 25.3425 63.252 26.4691 68.1557 28.6746C68.8965 31.8271 69.2631 35.0556 69.248 38.2937Z" fill="#14068A"/>
<path d="M89.839 63.6648C89.839 85.3264 73.7122 101.958 52.5241 101.958H20.7521V76.5873H31.9669C53.1347 76.5873 69.2819 59.962 69.2819 38.2937C69.2904 35.0548 68.9169 31.8263 68.1692 28.6746C81.1345 34.557 89.839 47.7503 89.839 63.6648Z" fill="#00B2F4"/>
<path d="M68.1353 28.6746C63.2316 26.4691 57.9096 25.3425 52.5308 25.3712H20.7521V76.5873H20.6571H15.2973H0.167755V0H31.9669C49.8713 0 64.1595 11.9003 68.1353 28.6746Z" fill="#F5007F"/>
</svg>
